<?xml version="1.0" encoding="UTF-8" standalone="no"?>
<!DOCTYPE svg PUBLIC "-//W3C//DTD SVG 1.1//EN" "http://www.w3.org/Graphics/SVG/1.1/DTD/svg11.dtd">
<svg width="100%" height="100%" viewBox="0 0 600 600" version="1.1" xmlns="http://www.w3.org/2000/svg" xmlns:xlink="http://www.w3.org/1999/xlink" xml:space="preserve" xmlns:serif="http://www.serif.com/" style="fill-rule:evenodd;clip-rule:evenodd;stroke-linejoin:round;stroke-miterlimit:2;">
    <path d="M558.067,219.625C557.874,219.513 557.685,219.389 557.502,219.254C552.459,215.527 515.17,181.752 470.365,153.853C441.188,135.684 408.815,119.908 380.289,117.211C350.139,114.36 316.628,137.302 285.099,166.87C267.965,182.939 251.485,201.062 236.541,218.604L220.93,218.604C237.763,198.434 256.883,176.88 276.89,158.117C311.287,125.859 348.526,102.154 381.418,105.264C411.556,108.114 445.883,124.472 476.708,143.666C497.108,156.369 515.968,170.271 530.991,182.048C508.069,159.691 477.123,129.097 446.375,104.385C428.676,90.16 411.066,77.894 395.142,70.467C385.231,65.843 376.061,63.092 368.021,63.236C334.089,63.841 307.495,83.425 283.644,112.853C260.556,141.338 240.113,178.932 218.8,218.604L205.249,218.604C228.087,176.163 249.742,135.623 274.321,105.297C300.635,72.83 330.371,51.906 367.806,51.238C385.266,50.926 407.614,61.533 431.076,77.856C478.521,110.865 531.457,166.874 558.067,191.411L558.067,219.625ZM558.067,394.5C531.74,418.62 478.189,475.462 430.245,508.818C406.784,525.141 384.435,535.748 366.976,535.436C329.541,534.768 299.805,513.843 273.491,481.377C249.327,451.563 227.99,411.878 205.575,370.22L219.125,370.22C240.023,409.098 260.144,445.851 282.813,473.821C306.665,503.249 333.258,522.832 367.19,523.438C375.23,523.581 384.401,520.83 394.312,516.207C410.236,508.779 427.845,496.513 445.545,482.288C472.137,460.916 498.878,435.145 520.447,414.107C507.333,424.049 492.091,434.903 475.878,444.999C445.053,464.193 410.726,480.551 380.588,483.401C347.695,486.511 310.457,462.806 276.06,430.548C256.106,411.834 237.034,390.345 220.233,370.22L235.846,370.22C250.754,387.712 267.186,405.774 284.268,421.795C315.797,451.363 349.308,474.305 379.458,471.454C407.985,468.757 440.358,452.981 469.535,434.812C514.34,406.913 551.629,373.138 556.671,369.411C557.111,369.086 557.581,368.83 558.067,368.641L558.067,394.5ZM37.237,143.889C37.801,143.806 38.387,143.804 38.98,143.892C61.695,147.256 84.544,165.035 105.253,188.469C113.54,197.847 121.509,208.112 129.034,218.604L114.185,218.604C108.428,210.894 102.435,203.403 96.261,196.416C77.68,175.389 57.617,158.789 37.237,155.765L37.237,143.889ZM37.237,216.385C37.882,216.195 38.571,216.111 39.281,216.152C70.882,217.996 90.071,223.398 109.807,236.718L109.807,251.471C89.481,236.145 71.027,230.025 38.582,228.132C38.117,228.105 37.666,228.025 37.237,227.899L37.237,216.385ZM37.237,361.079C37.902,360.77 38.636,360.579 39.413,360.533C71.415,358.666 89.805,352.686 109.807,337.816L109.807,352.503C90.36,365.418 71.269,370.695 40.112,372.513C39.087,372.573 38.107,372.371 37.237,371.966L37.237,361.079ZM37.237,432.678C37.501,432.601 37.773,432.541 38.053,432.499C58.433,429.481 78.484,412.632 97.064,391.318C102.873,384.654 108.52,377.542 113.962,370.22L128.788,370.22C121.589,380.305 113.993,390.16 106.11,399.203C85.396,422.964 62.531,441.005 39.811,444.37C38.921,444.502 38.047,444.43 37.237,444.191L37.237,432.678Z" style="fill:rgb(0,51,160);"/>
    <g transform="matrix(1,0,0,1,163.568,19.4821)">
        <g>
            <g transform="matrix(1,0,0,1,70.874,311.725)">
                <text x="0px" y="0px" style="font-family:'DejaVuSansCondensed', 'DejaVu Sans', sans-serif;font-stretch:semi-condensed;font-size:126px;fill:rgb(0,51,160);">s</text>
            </g>
            <g transform="matrix(1,0,0,1,127.543,311.725)">
                <g>
                    <text x="0px" y="0px" style="font-family:'DejaVuSansCondensed', 'DejaVu Sans', sans-serif;font-stretch:semi-condensed;font-size:126px;fill:rgb(0,51,160);">u</text>
                    <g transform="matrix(1,0,0,1,69.465,0)">
                        <g>
                            <text x="0px" y="0px" style="font-family:'DejaVuSansCondensed', 'DejaVu Sans', sans-serif;font-stretch:semi-condensed;font-size:126px;fill:rgb(0,51,160);">i</text>
                            <g transform="matrix(1,0,0,1,29.106,0)">
                                <text x="0px" y="0px" style="font-family:'DejaVuSansCondensed', 'DejaVu Sans', sans-serif;font-stretch:semi-condensed;font-size:126px;fill:rgb(0,51,160);">t<tspan x="42.026px " y="0px ">e</tspan></text>
                            </g>
                        </g>
                    </g>
                </g>
            </g>
        </g>
    </g>
    <g transform="matrix(1,0,0,1,117.805,352.52)">
        <text x="0px" y="0px" style="font-family:'DejaVuSansCondensed-Bold', 'DejaVu Sans', sans-serif;font-weight:700;font-stretch:semi-condensed;font-size:158px;fill:rgb(0,51,160);">X</text>
    </g>
</svg>
